<?xml version="1.0" encoding="utf-8"?>
<!-- Generator: Adobe Illustrator 15.1.0, SVG Export Plug-In  -->
<!DOCTYPE svg PUBLIC "-//W3C//DTD SVG 1.1//EN" "http://www.w3.org/Graphics/SVG/1.1/DTD/svg11.dtd" [
	<!ENTITY ns_flows "http://ns.adobe.com/Flows/1.0/">
]>
<svg version="1.1"
	 xmlns="http://www.w3.org/2000/svg" xmlns:xlink="http://www.w3.org/1999/xlink" xmlns:a="http://ns.adobe.com/AdobeSVGViewerExtensions/3.0/"
	 x="0px" y="0px" viewBox="0 0 400 400" overflow="visible" enable-background="new 0 0 400 400"
	 xml:space="preserve">
<defs>
</defs>
<path fill="#FFFFFF" d="M175.065,227.772c-3.863-2.533-7.874-4.292-12.037-5.228c-4.163-0.936-8.597-1.256-8.597-1.256
	c-1.716-0.108-4.528-0.289-6.248-0.289h-27.906c-1.72,0-2.278,1.597-2.278,3.316v0.401c0,0.062,1.278,0.182,2.56,0.363
	c1.282,0.181,2.094,0.528,3.24,1.04c1.147,0.514,1.959,1.185,2.352,2.014c0.392,0.83,0.479,0.83,0.479,0.83
	c0.108,1.073,0.37,3.359,0.37,5.079v42.39c0,1.084-0.385,2.001-0.807,2.771c-0.424,0.769-1.352,1.365-2.438,1.819
	c-0.482,0.211-1.448,0.369-2.896,0.52c-1.448,0.152-1.448,0.102-1.448,0.102c-1.194,0.064-2.172,0.816-2.172,1.786
	s1.408,1.569,3.127,1.569h29.224c5.036,0,9.856-0.433,14.456-1.684c4.599-1.248,8.71-2.962,12.329-5.525
	c3.559-2.563,6.417-5.86,8.574-9.886c2.156-4.027,3.234-8.76,3.234-14.191c0-6.182-1.206-11.413-3.62-15.682
	C182.151,233.766,178.984,230.338,175.065,227.772z M169.07,265.189c-0.679,3.336-1.757,6.207-3.233,8.621
	c-1.51,2.441-3.482,4.297-5.926,5.563c-2.443,1.267-5.365,1.9-8.772,1.9c-1.629,0-2.94-0.173-3.951-0.521
	c-1.01-0.347-1.845-0.837-2.538-1.47c-0.694-0.634-1.149-1.364-1.435-2.194c-0.288-0.83-0.216-0.83-0.216-0.83
	c-0.079-1.123,0-3.449,0-5.17v-45.601c1-0.029,1.522-0.069,2.865-0.114c1.343-0.045,2.399-0.067,3.455-0.067
	c3.317,0,6.281,0.678,8.89,2.036c2.609,1.356,4.789,3.272,6.539,5.746c1.748,2.474,3.078,5.459,3.982,8.957
	c0.905,3.501,1.356,7.376,1.356,11.628C170.087,258.019,169.75,261.858,169.07,265.189z"/>
<path fill="#FFFFFF" d="M210.406,199H93.677c-1.72,0-3.126,1.067-3.126,2.5s1.407,2.5,3.126,2.5h116.729
	c1.721,0,3.128-1.067,3.128-2.5S212.127,199,210.406,199z"/>
<path fill="#FFFFFF" d="M110.912,180h21.346c1.72,0,3.742-1.167,3.742-2.887v-0.404c-1-0.09-2.461-0.422-4.408-0.994
	c-1.945-0.573-3.607-1.178-4.361-1.81c-1.117-0.905-1.932-2.33-2.43-4.276c-0.499-1.946-0.647-5.404-0.647-5.404
	c-0.065-1.719-0.154-4.532-0.154-6.251v-32.792c0-1.72,0.525-1.806,1.119-0.192l15.202,41.179c0.662,1.78,1.534,4.147,2.605,7.103
	c1.071,2.958,1.081,2.958,1.081,2.958c0.518,1.633,2.243,2.97,3.811,2.97c1.568,0,3.399-1.311,4.026-2.912l19.873-50.597
	c0.626-1.601,1.283-1.504,1.283,0.215v44.832c0,1.208-0.387,2.195-0.867,2.979c-0.484,0.784-1.429,1.396-2.545,1.848
	c-0.543,0.242-1.559,0.453-3.052,0.664c-1.494,0.211-1.494,0.182-1.494,0.182c-1.256,0.132-2.284,0.975-2.284,1.946
	c0,0.97,1.408,1.645,3.127,1.645h28.54c1.719,0,3.576-1.167,3.576-2.887v-0.404c-1-0.09-2.011-0.255-3.385-0.498
	c-1.371-0.241-2.553-0.497-3.155-0.77c-1.177-0.543-1.892-1.183-2.269-1.921s-0.252-0.739-0.252-0.739
	c-0.104-1.1,0.061-3.407,0.061-5.126v-42.344c0-1.026-0.061-1.962,0.315-2.807c0.378-0.844,0.904-1.463,2.082-1.855
	c0.964-0.301,1.977-0.545,3.032-0.726c1.054-0.181,1.054-0.186,1.054-0.186c1.086-0.099,1.976-0.983,1.976-1.955
	c0-0.97-1.407-1.782-3.126-1.782h-25.312c-0.03,1-0.258,1.708-0.679,3.459c-0.421,1.751-0.421,1.769-0.421,1.769
	c-0.489,1.528-1.399,4.089-2.021,5.692l-11.074,28.499c-0.623,1.603-1.625,1.592-2.228-0.019l-13.633-36.453
	c-0.603-1.609-2.502-2.946-4.222-2.946H111.41c-1.719,0-2.41,1.444-2.41,3.163v0.402c1,0.09,2.237,0.271,3.503,0.543
	c1.267,0.271,2.163,0.875,3.369,1.81c0.966,0.754,1.722,1.772,2.205,3.054c0.482,1.283,0.578,1.699,0.578,1.699
	c0.116,1.716,0.346,4.527,0.346,6.246v28.681c0,3.709-0.345,6.559-0.766,8.565c-0.423,2.007-1.37,3.425-2.577,4.27
	c-1.085,0.783-2.482,1.319-4.186,1.636c-1.704,0.318-1.704,0.288-1.704,0.288c-1.09,0.161-1.983,1.027-1.983,1.999
	C107.785,179.325,109.192,180,110.912,180z"/>
<path fill="#FFFFFF" d="M0,0v400h400V0H0z M393.684,209.03l-88.811,152.919c-2.879,4.957-9.925,9.051-15.657,9.051H111.503
	c-5.732,0-12.778-4.098-15.657-9.055L7.035,209.003c-2.878-4.956-2.878-13.077,0-18.034l88.811-152.92
	C98.725,33.092,105.771,29,111.503,29h177.712c5.732,0,12.778,4.092,15.657,9.049l88.811,152.939
	C396.562,195.945,396.562,204.074,393.684,209.03z"/>
<path fill="#FFFFFF" d="M283.055,179.277c-4.796,0-9.284,0.663-13.467,1.983c-4.185,1.321-8.402,3.889-12.662,7.706
	c0.735-4.255,1.811-8.574,3.23-12.955c1.42-4.377,3.377-8.305,5.871-11.78c2.595-3.619,5.883-6.837,9.874-9.652
	c3.986-2.811,11.914-5.604,11.914-5.604c1.621-0.571,4.336-1.274,6.031-1.562l1.613-0.274c1.695-0.288,2.765-1.894,2.375-3.569
	l-0.981-4.222c-20.745,2.45-37.163,9.519-49.248,21.212c-12.087,11.695-18.128,26.499-18.128,44.407
	c0,13.408,3.838,24.086,11.521,32.038c7.683,7.951,17.859,11.928,30.535,11.928c12.133,0,22.102-3.499,29.909-10.496
	c7.805-6.997,11.707-15.684,11.707-26.057c0-9.785-2.914-17.749-8.734-23.89C298.591,182.351,291.471,179.277,283.055,179.277z
	 M281.991,235.135c-2.666,4.893-6.177,7.342-10.53,7.342c-4.506,0-8.185-3.121-11.048-9.359c-2.862-6.24-4.294-15.229-4.294-26.975
	c0-0.634,0.012-1.419,0.037-2.349c0.023-0.929,0.06-1.934,0.11-3.008c0.048-0.979,0.084-1.773,0.109-2.388
	c0.026-0.608,0.037-1.037,0.037-1.283c2.251-3.277,4.488-5.431,6.716-6.458c2.227-1.028,4.855-1.541,7.889-1.541
	c4.553,0,8.186,2.276,10.901,6.825c2.714,4.552,4.071,10.692,4.071,18.425C285.99,223.317,284.658,230.242,281.991,235.135z"/>
</svg>
