<?xml version="1.0" encoding="utf-8"?>
<!-- Generator: Adobe Illustrator 15.1.0, SVG Export Plug-In  -->
<!DOCTYPE svg PUBLIC "-//W3C//DTD SVG 1.1//EN" "http://www.w3.org/Graphics/SVG/1.1/DTD/svg11.dtd" [
	<!ENTITY ns_flows "http://ns.adobe.com/Flows/1.0/">
]>
<svg version="1.1"
	 xmlns="http://www.w3.org/2000/svg" xmlns:xlink="http://www.w3.org/1999/xlink" xmlns:a="http://ns.adobe.com/AdobeSVGViewerExtensions/3.0/"
	 x="0px" y="0px" viewBox="-4.876 -29 400 400"
	 overflow="visible" enable-background="new -4.876 -29 400 400" xml:space="preserve">
<defs>
</defs>
<path fill="#FF0099" d="M159.872,204.09c-1.75-2.474-3.929-4.39-6.539-5.746c-2.609-1.358-5.573-2.036-8.89-2.036
	c-1.056,0-2.112,0.022-3.455,0.067c-1.342,0.045-1.865,0.085-2.865,0.114v45.601c0,1.721-0.079,4.047,0,5.17c0,0-0.071,0,0.216,0.83
	c0.286,0.83,0.74,1.561,1.435,2.194c0.692,0.633,1.528,1.123,2.538,1.47c1.01,0.348,2.321,0.521,3.951,0.521
	c3.407,0,6.33-0.634,8.772-1.9c2.443-1.267,4.416-3.122,5.926-5.563c1.476-2.414,2.555-5.285,3.233-8.621
	c0.679-3.331,1.017-7.171,1.017-11.515c0-4.252-0.452-8.127-1.356-11.628C162.95,209.549,161.62,206.563,159.872,204.09z"/>
<path fill="#FF0099" d="M266.141,160.115c-3.033,0-5.662,0.513-7.889,1.541c-2.228,1.027-4.465,3.181-6.716,6.458
	c0,0.246-0.011,0.675-0.037,1.283c-0.025,0.615-0.062,1.409-0.109,2.388c-0.051,1.075-0.087,2.08-0.11,3.008
	c-0.025,0.93-0.037,1.715-0.037,2.349c0,11.745,1.432,20.734,4.294,26.975c2.863,6.238,6.542,9.359,11.048,9.359
	c4.354,0,7.864-2.449,10.53-7.342c2.667-4.893,3.999-11.817,3.999-20.771c0-7.732-1.357-13.873-4.071-18.425
	C274.327,162.391,270.694,160.115,266.141,160.115z"/>
<path fill="#FF0099" d="M388.807,161.988L299.997,9.049C297.118,4.092,290.072,0,284.339,0H106.627
	c-5.732,0-12.778,4.092-15.657,9.049L2.159,161.969c-2.878,4.957-2.878,13.078,0,18.034L90.97,332.945
	c2.879,4.957,9.925,9.055,15.657,9.055h177.712c5.732,0,12.778-4.094,15.657-9.051l88.811-152.919
	C391.686,175.074,391.686,166.945,388.807,161.988z M113.778,97.671c0,0-0.096-0.416-0.578-1.699
	c-0.482-1.281-1.239-2.3-2.205-3.054c-1.206-0.935-2.102-1.539-3.369-1.81c-1.267-0.271-2.503-0.453-3.503-0.543v-0.402
	c0-1.719,0.691-3.163,2.41-3.163h23.331c1.72,0,3.62,1.337,4.222,2.946l13.633,36.453c0.603,1.611,1.605,1.622,2.228,0.019
	l11.074-28.499c0.623-1.603,1.532-4.164,2.021-5.692c0,0,0-0.018,0.421-1.769c0.421-1.752,0.649-2.459,0.679-3.459h25.312
	c1.719,0,3.126,0.812,3.126,1.782c0,0.972-0.889,1.856-1.976,1.955c0,0,0,0.005-1.054,0.186c-1.056,0.181-2.068,0.425-3.032,0.726
	c-1.178,0.392-1.704,1.011-2.082,1.855c-0.376,0.845-0.315,1.781-0.315,2.807v42.344c0,1.719-0.165,4.026-0.061,5.126
	c0,0-0.125,0,0.252,0.739s1.091,1.378,2.269,1.921c0.603,0.273,1.784,0.528,3.155,0.77c1.374,0.242,2.385,0.408,3.385,0.498v0.404
	c0,1.72-1.856,2.887-3.576,2.887h-28.54c-1.719,0-3.127-0.675-3.127-1.645c0-0.971,1.028-1.814,2.284-1.946c0,0,0,0.029,1.494-0.182
	c1.493-0.211,2.509-0.422,3.052-0.664c1.116-0.452,2.061-1.064,2.545-1.848c0.48-0.785,0.867-1.772,0.867-2.979V96.905
	c0-1.72-0.657-1.816-1.283-0.215l-19.873,50.597c-0.626,1.601-2.458,2.912-4.026,2.912c-1.568,0-3.293-1.336-3.811-2.97
	c0,0-0.009,0-1.081-2.958c-1.071-2.956-1.943-5.323-2.605-7.103l-15.202-41.179c-0.594-1.614-1.119-1.527-1.119,0.192v32.792
	c0,1.72,0.089,4.533,0.154,6.251c0,0,0.148,3.458,0.647,5.404c0.498,1.946,1.313,3.372,2.43,4.276
	c0.754,0.632,2.416,1.237,4.361,1.81c1.947,0.572,3.408,0.904,4.408,0.994v0.404c0,1.72-2.022,2.887-3.742,2.887h-21.346
	c-1.719,0-3.126-0.675-3.126-1.645c0-0.971,0.893-1.837,1.983-1.999c0,0,0,0.03,1.704-0.288c1.704-0.317,3.101-0.853,4.186-1.636
	c1.207-0.845,2.154-2.263,2.577-4.27c0.421-2.006,0.766-4.856,0.766-8.565v-28.681C114.124,102.198,113.894,99.387,113.778,97.671z
	 M180.074,238.905c-2.157,4.025-5.015,7.322-8.574,9.886c-3.619,2.563-7.73,4.277-12.329,5.525c-4.6,1.251-9.419,1.684-14.456,1.684
	h-29.224c-1.72,0-3.127-0.6-3.127-1.569s0.978-1.722,2.172-1.786c0,0,0,0.051,1.448-0.102c1.448-0.15,2.414-0.309,2.896-0.52
	c1.086-0.454,2.014-1.051,2.438-1.819c0.422-0.77,0.807-1.687,0.807-2.771v-42.39c0-1.72-0.262-4.006-0.37-5.079
	c0,0-0.087,0-0.479-0.83c-0.393-0.829-1.205-1.5-2.352-2.014c-1.146-0.512-1.958-0.859-3.24-1.04
	c-1.281-0.182-2.56-0.301-2.56-0.363v-0.401c0-1.72,0.559-3.316,2.278-3.316h27.906c1.72,0,4.531,0.181,6.248,0.289
	c0,0,4.434,0.32,8.597,1.256c4.163,0.936,8.174,2.694,12.037,5.228c3.919,2.565,7.086,5.993,9.5,10.26
	c2.414,4.269,3.62,9.5,3.62,15.682C183.308,230.146,182.229,234.878,180.074,238.905z M205.53,175H88.8
	c-1.72,0-3.126-1.067-3.126-2.5s1.407-2.5,3.126-2.5H205.53c1.721,0,3.128,1.067,3.128,2.5S207.25,175,205.53,175z M296.567,209.438
	c-7.808,6.997-17.776,10.496-29.909,10.496c-12.676,0-22.853-3.977-30.535-11.928c-7.684-7.952-11.521-18.63-11.521-32.038
	c0-17.908,6.041-32.711,18.128-44.407c12.085-11.693,28.503-18.763,49.248-21.212l0.981,4.222c0.39,1.675-0.68,3.281-2.375,3.569
	l-1.613,0.274c-1.695,0.288-4.41,0.991-6.031,1.562c0,0-7.928,2.792-11.914,5.604c-3.991,2.815-7.279,6.033-9.874,9.652
	c-2.494,3.475-4.451,7.403-5.871,11.78c-1.42,4.381-2.495,8.699-3.23,12.955c4.26-3.817,8.478-6.385,12.662-7.706
	c4.183-1.32,8.671-1.983,13.467-1.983c8.416,0,15.536,3.073,21.361,9.215c5.82,6.141,8.734,14.104,8.734,23.89
	C308.274,193.755,304.372,202.441,296.567,209.438z"/>
</svg>
